<svg width="81" height="90" viewBox="0 0 81 90" fill="none" xmlns="http://www.w3.org/2000/svg">
<rect width="81" height="91" rx="3" fill="#181A20"/>
<path d="M33.5439 46.0869C33.5439 48.499 33.0947 50.5156 32.1963 52.1367C31.2979 53.748 29.9941 54.9639 28.2852 55.7842C26.5762 56.5947 24.5156 57 22.1035 57H16.1562V35.584H22.748C24.9648 35.584 26.8789 35.9844 28.4902 36.7852C30.1016 37.5762 31.3467 38.7529 32.2256 40.3154C33.1045 41.8682 33.5439 43.792 33.5439 46.0869ZM29.8818 46.1895C29.8818 44.4316 29.6035 42.9863 29.0469 41.8535C28.5 40.7207 27.6895 39.8809 26.6152 39.334C25.5508 38.7773 24.2373 38.499 22.6748 38.499H19.6719V54.0557H22.1621C24.75 54.0557 26.6836 53.3965 27.9629 52.0781C29.2422 50.7598 29.8818 48.7969 29.8818 46.1895ZM44.2666 40.4766C45.7119 40.4766 46.9521 40.7744 47.9873 41.3701C49.0225 41.9658 49.8184 42.8105 50.375 43.9043C50.9316 44.998 51.21 46.3066 51.21 47.8301V49.6758H40.3848C40.4238 51.248 40.8438 52.459 41.6445 53.3086C42.4551 54.1582 43.5879 54.583 45.043 54.583C46.0781 54.583 47.0059 54.4854 47.8262 54.29C48.6562 54.085 49.5107 53.7871 50.3896 53.3965V56.1943C49.5791 56.5752 48.7539 56.8535 47.9141 57.0293C47.0742 57.2051 46.0684 57.293 44.8965 57.293C43.3047 57.293 41.9033 56.9854 40.6924 56.3701C39.4912 55.7451 38.5488 54.8174 37.8652 53.5869C37.1914 52.3564 36.8545 50.8281 36.8545 49.002C36.8545 47.1855 37.1621 45.6426 37.7773 44.373C38.3926 43.1035 39.2568 42.1367 40.3701 41.4727C41.4834 40.8086 42.7822 40.4766 44.2666 40.4766ZM44.2666 43.0693C43.1826 43.0693 42.3037 43.4209 41.6299 44.124C40.9658 44.8271 40.5752 45.8574 40.458 47.2148H47.8408C47.8311 46.4043 47.6943 45.6865 47.4307 45.0615C47.1768 44.4365 46.7861 43.9482 46.2588 43.5967C45.7412 43.2451 45.0771 43.0693 44.2666 43.0693ZM58.7979 57L52.6309 40.7842H56.2783L59.6182 50.3057C59.833 50.9111 60.0283 51.5654 60.2041 52.2686C60.3799 52.9717 60.502 53.5625 60.5703 54.041H60.6875C60.7559 53.543 60.8877 52.9473 61.083 52.2539C61.2783 51.5508 61.4785 50.9014 61.6836 50.3057L65.0234 40.7842H68.6562L62.4893 57H58.7979Z" fill="white"/>
</svg>
