<svg width="26" height="26" viewBox="0 0 26 26" fill="none" xmlns="http://www.w3.org/2000/svg">
<path d="M7.47501 9.85829L12.675 7.58329C12.8917 7.47496 13.1083 7.47496 13.4333 7.58329L18.6333 9.85829C19.0667 10.075 19.5 9.53329 19.175 9.09996L13.7583 2.49163C13.4333 2.05829 12.7833 2.05829 12.4583 2.49163L7.04168 9.09996C6.60834 9.53329 7.04168 10.075 7.47501 9.85829ZM7.47501 16.1416L12.675 18.4166C12.8917 18.525 13.1083 18.525 13.4333 18.4166L18.6333 16.1416C19.0667 15.925 19.5 16.4666 19.175 16.9L13.7583 23.5083C13.4333 23.9416 12.7833 23.9416 12.4583 23.5083L7.04168 16.9C6.60834 16.4666 7.04168 15.925 7.47501 16.1416ZM13 10.1833L7.36668 13L13 15.8166L18.6333 13L13 10.1833Z" stroke="white" stroke-width="1.5" stroke-miterlimit="10" stroke-linecap="round" stroke-linejoin="round"/>
</svg>