<svg width="25" height="25" viewBox="0 0 25 25" fill="none" xmlns="http://www.w3.org/2000/svg">
<path d="M22.54 6.01617L15.3471 0.983693C13.3866 -0.389935 10.3771 -0.31501 8.49152 1.14603L2.23527 6.02866C0.986515 7.00268 0 9.00069 0 10.5741V19.1905C0 22.3748 2.58492 24.9722 5.76924 24.9722H19.2308C22.4151 24.9722 25 22.3873 25 19.2029V10.7364C25 9.05064 23.9136 6.97771 22.54 6.01617ZM13.4365 19.9772C13.4365 20.4892 13.012 20.9137 12.5 20.9137C11.988 20.9137 11.5634 20.4892 11.5634 19.9772V16.2309C11.5634 15.7189 11.988 15.2943 12.5 15.2943C13.012 15.2943 13.4365 15.7189 13.4365 16.2309V19.9772Z" fill="#292D32"/>
</svg>
