<svg width="25" height="26" viewBox="0 0 25 26" fill="none" xmlns="http://www.w3.org/2000/svg">
<path d="M12.5 25.0698C11.6977 25.0698 10.9419 24.6628 10.407 23.9535L8.66279 21.6279C8.62791 21.5814 8.48837 21.5233 8.43023 21.5116H7.84884C3 21.5116 0 20.1977 0 13.6628V7.84884C0 2.7093 2.7093 0 7.84884 0H17.1512C22.2907 0 25 2.7093 25 7.84884V13.6628C25 18.8023 22.2907 21.5116 17.1512 21.5116H16.5698C16.4767 21.5116 16.3953 21.5581 16.3372 21.6279L14.593 23.9535C14.0581 24.6628 13.3023 25.0698 12.5 25.0698ZM7.84884 1.74419C3.68605 1.74419 1.74419 3.68605 1.74419 7.84884V13.6628C1.74419 18.9186 3.54651 19.7674 7.84884 19.7674H8.43023C9.02326 19.7674 9.69767 20.1047 10.0581 20.5814L11.8023 22.907C12.2093 23.4419 12.7907 23.4419 13.1977 22.907L14.9419 20.5814C15.3256 20.0698 15.9302 19.7674 16.5698 19.7674H17.1512C21.314 19.7674 23.2558 17.8256 23.2558 13.6628V7.84884C23.2558 3.68605 21.314 1.74419 17.1512 1.74419H7.84884Z" fill="#292D32"/>
<path d="M12.5 12.5C11.8488 12.5 11.3372 11.9768 11.3372 11.3372C11.3372 10.6977 11.8605 10.1744 12.5 10.1744C13.1395 10.1744 13.6628 10.6977 13.6628 11.3372C13.6628 11.9768 13.1512 12.5 12.5 12.5Z" fill="#292D32"/>
<path d="M17.1511 12.5C16.5 12.5 15.9883 11.9768 15.9883 11.3372C15.9883 10.6977 16.5116 10.1744 17.1511 10.1744C17.7907 10.1744 18.3139 10.6977 18.3139 11.3372C18.3139 11.9768 17.8023 12.5 17.1511 12.5Z" fill="#292D32"/>
<path d="M7.84883 12.5C7.19766 12.5 6.68604 11.9768 6.68604 11.3372C6.68604 10.6977 7.20929 10.1744 7.84883 10.1744C8.48836 10.1744 9.01162 10.6977 9.01162 11.3372C9.01162 11.9768 8.49999 12.5 7.84883 12.5Z" fill="#292D32"/>
</svg>
