<svg width="25" height="25" viewBox="0 0 25 25" fill="none" xmlns="http://www.w3.org/2000/svg">
<path d="M18.75 0H6.25C2.8 0 0 2.7875 0 6.225V13.7V14.95C0 18.3875 2.8 21.175 6.25 21.175H8.125C8.4625 21.175 8.9125 21.4 9.125 21.675L11 24.1625C11.825 25.2625 13.175 25.2625 14 24.1625L15.875 21.675C16.1125 21.3625 16.4875 21.175 16.875 21.175H18.75C22.2 21.175 25 18.3875 25 14.95V6.225C25 2.7875 22.2 0 18.75 0ZM7.5 12.5C6.8 12.5 6.25 11.9375 6.25 11.25C6.25 10.5625 6.8125 10 7.5 10C8.1875 10 8.75 10.5625 8.75 11.25C8.75 11.9375 8.2 12.5 7.5 12.5ZM12.5 12.5C11.8 12.5 11.25 11.9375 11.25 11.25C11.25 10.5625 11.8125 10 12.5 10C13.1875 10 13.75 10.5625 13.75 11.25C13.75 11.9375 13.2 12.5 12.5 12.5ZM17.5 12.5C16.8 12.5 16.25 11.9375 16.25 11.25C16.25 10.5625 16.8125 10 17.5 10C18.1875 10 18.75 10.5625 18.75 11.25C18.75 11.9375 18.2 12.5 17.5 12.5Z" fill="#292D32"/>
</svg>
