<svg width="26" height="28" viewBox="0 0 26 28" fill="none" xmlns="http://www.w3.org/2000/svg">
<path d="M12.2142 12.8511C12.5895 13.2691 12.5895 13.9027 12.2142 14.3207L6.33939 20.8648C5.66547 21.6155 4.42084 21.1388 4.42084 20.13L4.42084 7.04187C4.42084 6.03306 5.66547 5.55635 6.33939 6.30703L12.2142 12.8511Z" fill="white" stroke="black" stroke-width="1.8"/>
<path d="M13.7858 14.3208C13.4106 13.9028 13.4106 13.2691 13.7858 12.8511L13.1161 12.2499L13.7858 12.8511L19.6606 6.30708C20.3346 5.55639 21.5792 6.03311 21.5792 7.04192L21.5792 20.13C21.5792 21.1388 20.3346 21.6155 19.6606 20.8648L13.7858 14.3208L13.1161 14.922L13.7858 14.3208Z" fill="white" stroke="black" stroke-width="1.8"/>
</svg>
