<svg width="25" height="25" viewBox="0 0 25 25" fill="none" xmlns="http://www.w3.org/2000/svg">
<path d="M17.7375 0H7.2625C2.7125 0 0 2.7125 0 7.2625V17.7375C0 21.25 1.6125 23.6625 4.45 24.575C5.275 24.8625 6.225 25 7.2625 25H17.7375C18.775 25 19.725 24.8625 20.55 24.575C23.3875 23.6625 25 21.25 25 17.7375V7.2625C25 2.7125 22.2875 0 17.7375 0ZM23.125 17.7375C23.125 20.4125 22.075 22.1 19.9625 22.8C18.75 20.4125 15.875 18.7125 12.5 18.7125C9.125 18.7125 6.2625 20.4 5.0375 22.8H5.025C2.9375 22.125 1.875 20.425 1.875 17.75V7.2625C1.875 3.7375 3.7375 1.875 7.2625 1.875H17.7375C21.2625 1.875 23.125 3.7375 23.125 7.2625V17.7375Z" fill="#FFFFFF"/>
<path d="M12.5024 7.5C10.0274 7.5 8.02734 9.5 8.02734 11.975C8.02734 14.45 10.0274 16.4625 12.5024 16.4625C14.9774 16.4625 16.9774 14.45 16.9774 11.975C16.9774 9.5 14.9774 7.5 12.5024 7.5Z" fill="#FFFFFF"/>
</svg>
