<svg width="27" height="27" viewBox="0 0 27 27" fill="none" xmlns="http://www.w3.org/2000/svg">
<path d="M16.9095 26.3927H9.56703C7.95169 26.3927 6.60556 26.2337 5.46748 25.891C5.0514 25.7686 4.78218 25.3648 4.80666 24.9365C5.11259 21.2775 8.82055 18.4017 13.2382 18.4017C17.656 18.4017 21.3517 21.2652 21.6699 24.9365C21.7066 25.377 21.4373 25.7686 21.009 25.891C19.8709 26.2337 18.5248 26.3927 16.9095 26.3927ZM6.77689 24.3246C7.58456 24.4837 8.50237 24.5571 9.56703 24.5571H16.9095C17.9741 24.5571 18.8919 24.4837 19.6996 24.3246C19.051 21.975 16.371 20.2373 13.2382 20.2373C10.1055 20.2373 7.42547 21.975 6.77689 24.3246Z" fill="#292D32"/>
<path d="M16.9087 1H9.56623C3.44749 1 1 3.44749 1 9.56623V16.9087C1 21.5345 2.39507 24.0676 5.72366 25.0099C5.99289 21.8282 9.26029 19.3195 13.2375 19.3195C17.2146 19.3195 20.4821 21.8282 20.7513 25.0099C24.0799 24.0676 25.4749 21.5345 25.4749 16.9087V9.56623C25.4749 3.44749 23.0274 1 16.9087 1ZM13.2375 15.893C10.8145 15.893 8.85646 13.9228 8.85646 11.4997C8.85646 9.07675 10.8145 7.11874 13.2375 7.11874C15.6605 7.11874 17.6185 9.07675 17.6185 11.4997C17.6185 13.9228 15.6605 15.893 13.2375 15.893Z" stroke="#292D32" stroke-width="1.83562" stroke-linecap="round" stroke-linejoin="round"/>
<path d="M13.2373 16.8108C10.3126 16.8108 7.93854 14.4245 7.93854 11.4998C7.93854 8.57502 10.3126 6.20093 13.2373 6.20093C16.1621 6.20093 18.5362 8.57502 18.5362 11.4998C18.5362 14.4245 16.1621 16.8108 13.2373 16.8108ZM13.2373 8.03655C11.3283 8.03655 9.77416 9.59073 9.77416 11.4998C9.77416 13.421 11.3283 14.9752 13.2373 14.9752C15.1464 14.9752 16.7005 13.421 16.7005 11.4998C16.7005 9.59073 15.1464 8.03655 13.2373 8.03655Z" fill="#292D32"/>
</svg>
