<svg width="26" height="26" viewBox="0 0 26 26" fill="none" xmlns="http://www.w3.org/2000/svg">
<g id="share-android">
<path id="Path 2" d="M17.3333 8.66666L8.66663 11.9167" stroke="#ffffff" stroke-linecap="round"/>
<path id="Path 2_2" d="M17.3333 17.3333L8.66663 14.0833" stroke="#ffffff" stroke-linecap="round"/>
<path id="Oval" fill-rule="evenodd" clip-rule="evenodd" d="M6.50004 15.1667C7.69666 15.1667 8.66671 14.1966 8.66671 13C8.66671 11.8034 7.69666 10.8333 6.50004 10.8333C5.30342 10.8333 4.33337 11.8034 4.33337 13C4.33337 14.1966 5.30342 15.1667 6.50004 15.1667Z" stroke="#ffffff"/>
<path id="Oval_2" fill-rule="evenodd" clip-rule="evenodd" d="M19.5 9.74999C20.6967 9.74999 21.6667 8.77994 21.6667 7.58332C21.6667 6.38671 20.6967 5.41666 19.5 5.41666C18.3034 5.41666 17.3334 6.38671 17.3334 7.58332C17.3334 8.77994 18.3034 9.74999 19.5 9.74999Z" stroke="#ffffff"/>
<path id="Oval_3" fill-rule="evenodd" clip-rule="evenodd" d="M19.5 20.5833C20.6967 20.5833 21.6667 19.6133 21.6667 18.4167C21.6667 17.22 20.6967 16.25 19.5 16.25C18.3034 16.25 17.3334 17.22 17.3334 18.4167C17.3334 19.6133 18.3034 20.5833 19.5 20.5833Z" stroke="#ffffff"/>
</g>
</svg>
