<svg width="34" height="32" viewBox="0 0 34 32" fill="none" xmlns="http://www.w3.org/2000/svg">
<path d="M23.7779 0H10.281C4.41833 0 0.923309 3.43702 0.923309 9.20233V22.4752C0.923309 26.9259 3.001 29.9828 6.65708 31.1391C7.72009 31.5033 8.94415 31.6776 10.281 31.6776H23.7779C25.1147 31.6776 26.3387 31.5033 27.4018 31.1391C31.0578 29.9828 33.1355 26.9259 33.1355 22.4752V9.20233C33.1355 3.43702 29.6405 0 23.7779 0ZM30.7196 22.4752C30.7196 25.8647 29.3667 28.003 26.6448 28.8899C25.0825 25.8647 21.3781 23.7107 17.0294 23.7107C12.6808 23.7107 8.99247 25.8489 7.41407 28.8899H7.39796C4.70824 28.0347 3.33923 25.8806 3.33923 22.4911V9.20233C3.33923 4.7358 5.73904 2.37582 10.281 2.37582H23.7779C28.3198 2.37582 30.7196 4.7358 30.7196 9.20233V22.4752Z" fill="#913AFF"/>
<path d="M17.0325 9.5033C13.8435 9.5033 11.2665 12.0375 11.2665 15.1736C11.2665 18.3097 13.8435 20.8597 17.0325 20.8597C20.2215 20.8597 22.7985 18.3097 22.7985 15.1736C22.7985 12.0375 20.2215 9.5033 17.0325 9.5033Z" fill="#913AFF"/>
<path d="M14.4599 16.7518C14.226 18.4698 19.6064 18.4698 19.6064 16.7518" stroke="white" stroke-width="0.5" stroke-linecap="round"/>
<ellipse cx="14.7746" cy="14.1748" rx="0.322122" ry="0.644244" fill="white"/>
<ellipse cx="19.2843" cy="14.1748" rx="0.322122" ry="0.644244" fill="white"/>
</svg>
